<?xml version="1.0" standalone="no"?>
<!DOCTYPE svg PUBLIC "-//W3C//DTD SVG 20010904//EN"
 "http://www.w3.org/TR/2001/REC-SVG-20010904/DTD/svg10.dtd">
<svg version="1.0" xmlns="http://www.w3.org/2000/svg"
 width="2789.000000pt" height="2789.000000pt" viewBox="0 0 2789.000000 2789.000000"
 preserveAspectRatio="xMidYMid meet">
<metadata>
Created by potrace 1.11, written by Peter Selinger 2001-2013
</metadata>
<g transform="translate(0.000000,2789.000000) scale(0.100000,-0.100000)"
fill="#000000" stroke="none">
<path d="M13635 27883 c-178 -47 -363 -142 -506 -259 -189 -154 -311 -335
-428 -634 -23 -58 -46 -114 -50 -125 -5 -11 -64 -159 -131 -330 -67 -170 -126
-319 -131 -330 -5 -11 -133 -333 -284 -715 -152 -382 -282 -708 -289 -725 -7
-16 -19 -46 -26 -65 -7 -19 -23 -60 -36 -90 -12 -30 -61 -154 -109 -275 -47
-121 -90 -229 -95 -240 -5 -11 -75 -186 -156 -390 -80 -203 -152 -383 -159
-400 -7 -16 -91 -226 -185 -465 -266 -670 -469 -1182 -484 -1215 -8 -16 -17
-41 -21 -55 -4 -14 -13 -38 -21 -55 -13 -30 -150 -373 -290 -728 -137 -346
-334 -842 -344 -862 -14 -30 -80 -198 -85 -215 -2 -8 -62 -159 -133 -335 -71
-176 -141 -354 -157 -395 -15 -41 -34 -88 -41 -105 -7 -16 -45 -111 -84 -210
-39 -99 -75 -189 -80 -200 -8 -17 -360 -904 -457 -1150 -19 -49 -41 -103 -48
-120 -7 -16 -34 -84 -59 -150 -26 -66 -51 -129 -56 -140 -5 -11 -32 -76 -59
-145 -135 -342 -523 -1317 -530 -1335 -5 -11 -30 -74 -56 -140 -26 -66 -56
-139 -66 -162 -11 -23 -19 -47 -19 -53 0 -5 -4 -18 -10 -28 -5 -9 -62 -150
-126 -312 -64 -162 -122 -308 -129 -325 -7 -16 -65 -163 -129 -325 -64 -162
-121 -304 -126 -315 -5 -11 -70 -175 -145 -365 -75 -190 -182 -457 -237 -595
-55 -137 -111 -277 -123 -310 -13 -33 -69 -175 -125 -315 -56 -140 -117 -295
-137 -345 -19 -49 -39 -99 -44 -110 -5 -11 -63 -157 -129 -325 -66 -168 -125
-314 -130 -325 -5 -11 -23 -56 -40 -100 -17 -44 -35 -89 -40 -100 -5 -11 -48
-119 -95 -240 -47 -121 -92 -233 -99 -250 -7 -16 -33 -79 -56 -140 -23 -60
-48 -123 -55 -140 -8 -16 -48 -118 -91 -225 -42 -107 -82 -208 -89 -225 -7
-16 -42 -104 -78 -195 -36 -91 -159 -399 -272 -685 -114 -286 -236 -594 -272
-685 -36 -91 -71 -178 -78 -195 -7 -16 -99 -248 -205 -515 -106 -267 -198
-498 -206 -514 -8 -16 -14 -33 -14 -39 0 -5 -7 -23 -14 -40 -13 -29 -423
-1057 -563 -1412 -30 -77 -61 -153 -68 -170 -12 -27 -149 -372 -592 -1490 -74
-187 -141 -353 -148 -370 -14 -34 -118 -294 -319 -805 -75 -190 -141 -355
-146 -367 -26 -60 -24 -56 -110 -273 -22 -58 -45 -114 -49 -125 -62 -145 -94
-311 -95 -485 -1 -179 18 -289 80 -462 109 -311 376 -596 684 -731 70 -31 200
-78 200 -72 0 2 21 -3 47 -11 37 -11 107 -14 298 -13 246 1 252 1 350 30 124
37 317 131 410 201 162 122 317 309 400 484 26 54 395 970 400 994 1 3 7 19
14 35 25 60 284 713 475 1195 108 272 201 504 206 515 5 11 80 198 166 415
400 1011 466 1178 484 1217 11 24 20 46 20 50 0 7 53 142 85 218 11 26 260
652 386 970 22 55 44 109 48 120 5 11 21 52 36 90 15 39 33 84 40 100 14 34
27 65 31 80 1 6 43 109 92 230 49 121 121 303 161 405 40 102 76 194 81 205 5
11 73 180 150 375 77 195 145 363 150 372 6 10 10 22 10 28 0 6 9 29 19 53 18
39 63 153 247 620 41 105 80 201 85 212 7 16 261 655 354 890 13 33 29 74 36
90 7 17 13 35 15 40 1 6 32 82 68 170 36 88 126 315 201 505 75 190 140 354
145 365 5 11 71 175 145 365 75 190 141 356 147 370 6 14 14 34 19 45 5 11 45
112 90 225 44 113 169 426 276 695 107 270 284 717 395 995 110 278 204 514
208 525 5 11 25 61 45 110 20 50 40 99 44 110 5 11 70 175 145 365 75 190 141
353 146 362 6 10 10 22 10 28 0 6 9 29 19 53 11 23 63 152 116 287 52 135 100
254 105 265 5 11 74 184 154 385 230 583 616 1553 626 1575 5 11 106 265 225
565 118 300 220 554 225 565 5 11 70 175 145 365 75 190 140 354 145 365 4 11
19 47 31 80 13 33 27 64 31 69 4 6 8 16 8 24 0 8 7 28 15 45 8 18 64 158 125
312 61 154 115 289 120 300 5 11 39 97 76 190 36 94 72 184 79 200 7 17 43
107 80 200 36 94 72 184 79 200 8 17 22 53 32 80 10 28 24 61 31 75 7 14 13
31 13 38 0 7 5 20 10 30 6 9 100 244 210 522 110 278 205 514 210 525 5 11 34
85 65 165 31 79 57 146 59 147 1 2 17 -34 36 -80 18 -45 41 -101 52 -124 10
-23 18 -45 18 -48 0 -3 8 -25 19 -48 10 -23 50 -121 89 -217 39 -96 96 -238
127 -315 32 -77 65 -160 75 -185 15 -40 74 -185 327 -810 41 -102 106 -264
145 -360 38 -96 76 -188 83 -205 7 -16 41 -100 75 -185 85 -214 269 -671 280
-695 5 -11 44 -105 86 -210 42 -104 109 -273 150 -375 41 -102 79 -194 84
-205 5 -11 28 -67 50 -125 23 -58 48 -118 55 -135 7 -16 36 -88 65 -160 158
-394 343 -854 356 -882 8 -17 14 -33 14 -36 0 -2 8 -22 17 -43 9 -22 17 -41
18 -44 1 -3 6 -16 12 -30 13 -30 292 -721 324 -800 12 -30 27 -68 34 -85 7
-16 55 -133 105 -260 51 -126 98 -243 105 -260 7 -16 36 -88 65 -160 28 -71
57 -143 65 -160 7 -16 54 -133 105 -260 51 -126 126 -313 168 -415 41 -102 83
-205 92 -230 16 -42 104 -259 317 -785 47 -115 141 -349 210 -520 286 -711
335 -833 358 -885 13 -30 60 -147 105 -260 45 -113 110 -275 145 -360 35 -85
125 -308 200 -495 75 -187 165 -410 200 -495 34 -85 106 -261 158 -390 53
-129 132 -327 177 -440 45 -113 88 -218 95 -235 12 -28 83 -201 368 -910 58
-143 152 -377 210 -520 58 -143 149 -368 202 -500 322 -799 407 -1008 435
-1075 17 -41 33 -79 34 -85 2 -5 8 -21 14 -35 5 -14 24 -61 42 -105 31 -80 35
-90 63 -155 8 -19 52 -127 97 -240 167 -416 231 -575 240 -595 5 -11 34 -81
63 -155 30 -74 58 -144 62 -155 5 -11 9 -22 10 -25 1 -3 6 -16 12 -30 6 -14
52 -128 103 -255 50 -126 100 -249 111 -272 10 -24 19 -46 19 -49 0 -3 6 -20
14 -37 16 -34 102 -248 256 -632 51 -126 98 -243 105 -260 8 -16 57 -138 110
-270 52 -132 100 -249 105 -260 5 -11 18 -42 29 -70 10 -27 37 -95 59 -150 98
-244 133 -331 142 -350 5 -11 75 -184 156 -385 80 -201 151 -373 156 -383 5
-10 11 -26 13 -35 2 -9 38 -100 80 -202 94 -227 61 -147 247 -610 187 -466
216 -532 270 -625 424 -724 1419 -857 2023 -270 196 189 329 442 379 719 14
79 15 345 1 416 -31 160 -42 193 -270 755 -75 187 -162 401 -191 475 -30 74
-59 144 -64 155 -5 11 -33 79 -60 150 -28 72 -60 149 -71 172 -10 24 -19 47
-19 51 0 5 -6 22 -14 38 -13 27 -162 396 -400 989 -53 132 -106 263 -118 290
-11 28 -27 64 -34 80 -6 17 -33 84 -59 150 -26 66 -53 134 -60 150 -8 17 -80
194 -160 395 -81 201 -153 379 -160 395 -7 17 -31 75 -53 130 -22 55 -84 208
-137 340 -271 671 -330 817 -408 1010 -47 116 -146 363 -221 550 -75 187 -141
349 -146 360 -5 11 -86 211 -180 445 -94 234 -175 434 -180 445 -5 11 -57 139
-116 285 -58 146 -139 346 -179 445 -78 193 -294 727 -369 915 -26 63 -51 124
-56 135 -5 11 -28 67 -50 125 -78 199 -93 235 -102 245 -4 5 -8 15 -8 23 0 7
-9 32 -19 55 -20 43 -238 583 -273 672 -10 28 -23 59 -28 70 -5 11 -62 151
-126 310 -64 160 -141 351 -171 425 -30 74 -134 331 -230 570 -235 584 -262
652 -273 675 -5 11 -61 148 -124 305 -63 157 -146 364 -186 460 -39 96 -72
180 -74 185 -4 15 -25 68 -36 90 -5 11 -52 127 -105 258 -52 130 -138 344
-191 475 -53 130 -109 271 -126 312 -17 41 -36 89 -43 105 -7 17 -72 176 -143
355 -72 179 -136 339 -143 355 -7 17 -13 32 -14 35 -2 6 -8 21 -40 100 -34 82
-176 434 -320 790 -70 173 -156 387 -192 475 -36 88 -92 228 -125 310 -33 83
-66 164 -73 180 -13 29 -86 210 -187 465 -28 69 -56 139 -63 155 -16 37 -262
644 -285 705 -24 62 -269 667 -287 710 -21 50 -23 54 -113 280 -45 113 -88
219 -95 235 -7 17 -55 134 -105 260 -51 127 -98 244 -105 260 -7 17 -26 64
-43 105 -42 107 -112 280 -127 315 -7 17 -41 100 -75 185 -34 85 -95 236 -135
335 -177 438 -269 665 -355 880 -51 127 -98 244 -105 260 -19 42 -266 653
-281 695 -7 19 -38 96 -69 170 -31 74 -58 140 -59 145 -2 6 -8 21 -14 35 -5
14 -24 61 -42 105 -17 44 -36 91 -42 105 -10 25 -28 69 -242 600 -59 146 -113
279 -120 295 -8 17 -36 86 -63 155 -28 69 -54 134 -58 145 -5 11 -9 22 -10 25
-1 3 -6 16 -12 30 -6 14 -30 72 -53 130 -23 58 -47 116 -53 130 -6 14 -11 27
-12 30 -1 3 -7 18 -13 33 -7 16 -12 30 -12 33 0 2 -9 23 -19 47 -10 23 -36 95
-56 161 -130 411 -425 710 -843 854 -76 26 -80 26 -387 28 -170 1 -319 0 -330
-3z"/>
<path d="M13980 14117 c-3 -3 -26 -7 -51 -10 -79 -9 -224 -52 -316 -92 -21
-10 -47 -20 -58 -25 -11 -4 -46 -19 -78 -33 -31 -15 -61 -27 -66 -27 -5 0 -38
-17 -73 -37 -368 -216 -579 -572 -582 -983 -2 -239 2 -251 229 -816 86 -214
179 -445 207 -514 27 -69 56 -138 63 -155 16 -38 43 -103 95 -235 23 -58 47
-118 55 -135 7 -16 45 -111 85 -210 40 -99 77 -191 83 -205 6 -14 11 -27 12
-30 1 -3 5 -14 10 -25 20 -47 179 -444 195 -485 10 -25 39 -96 64 -159 26 -62
45 -116 42 -118 -2 -3 -424 -6 -938 -8 -513 -1 -951 -6 -973 -9 -193 -35 -387
-119 -532 -230 -132 -102 -276 -289 -344 -446 -76 -177 -97 -308 -94 -599 2
-206 4 -233 31 -348 77 -325 303 -607 605 -756 94 -46 236 -93 313 -102 22 -3
56 -8 75 -12 43 -7 3831 -7 3886 1 22 3 56 8 76 10 163 24 381 120 519 230
191 154 405 482 465 716 32 123 42 211 39 328 -5 195 -28 275 -209 717 -42
105 -99 246 -127 315 -28 69 -56 139 -63 155 -7 17 -22 55 -34 85 -12 30 -26
64 -31 75 -5 11 -23 56 -40 100 -17 44 -35 89 -39 100 -29 67 -49 115 -141
345 -56 140 -112 280 -125 310 -13 30 -56 136 -95 235 -39 99 -75 189 -80 200
-5 11 -44 106 -86 210 -42 105 -81 201 -87 215 -6 14 -11 27 -12 30 -1 3 -5
14 -10 25 -4 11 -33 81 -62 155 -147 364 -366 908 -378 935 -7 17 -25 62 -40
100 -27 68 -48 118 -66 160 -4 11 -34 83 -65 160 -138 343 -173 403 -329 562
-162 165 -377 277 -605 316 -78 14 -310 23 -320 14z"/>
<path d="M10000 4839 c-135 -16 -199 -31 -320 -74 -225 -81 -434 -238 -585
-440 -118 -157 -134 -188 -310 -625 -70 -173 -179 -443 -242 -600 -63 -157
-121 -298 -128 -315 -7 -16 -73 -178 -145 -360 -153 -383 -178 -443 -190 -470
-25 -54 -115 -305 -118 -328 0 -4 -5 -31 -11 -60 -20 -100 -30 -329 -17 -392
2 -11 7 -40 11 -65 33 -203 128 -421 254 -585 52 -68 161 -179 218 -221 21
-16 44 -35 51 -41 21 -21 150 -93 227 -129 91 -42 223 -80 342 -100 194 -31
486 1 648 71 17 8 57 25 90 39 33 15 67 31 75 36 8 5 35 21 60 36 196 118 392
337 487 544 19 41 82 192 139 335 58 143 109 269 114 280 5 11 52 128 105 260
53 132 100 249 105 260 5 11 30 72 55 135 25 63 49 124 54 135 5 11 14 34 20
50 l12 31 2977 -1 2977 0 53 -130 c29 -71 102 -254 163 -405 61 -151 117 -288
124 -305 7 -16 23 -57 36 -90 12 -33 35 -88 51 -123 15 -34 28 -65 28 -69 0
-3 28 -74 61 -157 87 -214 154 -348 203 -407 14 -17 26 -34 26 -39 0 -5 51
-60 113 -123 197 -200 408 -315 682 -372 89 -19 317 -27 392 -14 26 4 64 10
83 12 82 11 197 47 308 98 35 16 67 29 72 29 6 0 10 3 10 8 0 4 14 13 31 21
17 7 67 40 112 73 428 314 623 859 492 1374 -19 75 -190 520 -260 679 -12 27
-87 214 -231 575 -30 74 -58 144 -64 155 -5 11 -80 196 -166 410 -86 215 -162
404 -169 420 -7 17 -28 68 -46 115 -41 107 -94 209 -156 302 -52 79 -225 263
-273 291 -16 10 -35 23 -42 30 -23 22 -113 76 -184 110 -108 53 -200 84 -314
108 l-105 22 -3965 1 c-2181 1 -3990 -2 -4020 -5z"/>
</g>
</svg>
