<svg xmlns="http://www.w3.org/2000/svg" xmlns:xlink="http://www.w3.org/1999/xlink" viewBox="0 0 8420.97 2083"><defs><style>.cls-1{font-size:980px;fill:#00b100;font-family:JosefinSans-SemiBold, Josefin Sans;font-weight:700;letter-spacing:-0.02em;}.cls-2{letter-spacing:-0.03em;}.cls-3{letter-spacing:-0.03em;}.cls-12,.cls-4{letter-spacing:-0.03em;}.cls-5{letter-spacing:-0.03em;}.cls-6{letter-spacing:-0.01em;}.cls-10,.cls-11,.cls-12,.cls-13,.cls-15,.cls-7,.cls-8,.cls-9{fill:#009bce;}.cls-7{letter-spacing:-0.03em;}.cls-8{letter-spacing:-0.02em;}.cls-9{letter-spacing:-0.03em;}.cls-10{letter-spacing:-0.03em;}.cls-11{letter-spacing:-0.03em;}.cls-13{letter-spacing:-0.01em;}.cls-14{fill:#00b140;}.cls-16{fill:url(#Unbenannter_Verlauf_816);}</style><radialGradient id="Unbenannter_Verlauf_816" cx="3215.33" cy="2044.48" r="1643.92" gradientTransform="translate(-1299.27 -381.39) scale(1 0.7)" gradientUnits="userSpaceOnUse"><stop offset="0.43" stop-color="#009bce"/><stop offset="0.48" stop-color="#009bce" stop-opacity="0.93"/><stop offset="0.57" stop-color="#009bce" stop-opacity="0.75"/><stop offset="0.69" stop-color="#009bce" stop-opacity="0.46"/><stop offset="0.85" stop-color="#009bce" stop-opacity="0.06"/><stop offset="0.87" stop-color="#009bce" stop-opacity="0"/></radialGradient></defs><title>misshu</title><g id="Ebene_2" data-name="Ebene 2"><text class="cls-1" transform="translate(2192.59 1316.45)">A<tspan class="cls-2" x="612.49" y="0">n</tspan><tspan class="cls-3" x="1085.03" y="0">d</tspan><tspan class="cls-4" x="1582.47" y="0">r</tspan><tspan class="cls-5" x="1856.27" y="0">e</tspan><tspan class="cls-6" x="2278.84" y="0">i </tspan><tspan class="cls-7" x="2685.52" y="0">N</tspan><tspan class="cls-8" x="3454.13" y="0">e</tspan><tspan class="cls-9" x="3888.76" y="0">d</tspan><tspan class="cls-10" x="4389.62" y="0">e</tspan><tspan class="cls-11" x="4812.59" y="0">l</tspan><tspan class="cls-12" x="4985.74" y="0">u</tspan><tspan class="cls-13" x="5453.58" y="0">s</tspan></text></g><g id="logo"><rect id="outer_left" data-name="outer left" class="cls-14" x="1642.97" y="1527.15" width="175.16" height="2010.29" rx="87.58" ry="87.58" transform="translate(-224.65 -1956.88) rotate(22)"/><rect id="outer_right" data-name="outer right" class="cls-14" x="2331.65" y="1527.12" width="175.16" height="2011.33" rx="87.58" ry="87.58" transform="translate(-2071.92 -402.31) rotate(-22)"/><path id="n_horizontal" data-name="n horizontal" class="cls-15" d="M1730.58,3233.72v87.58h693.89v-87.58c0-48.17-39.12-87.58-86.94-87.58h-520C1769.7,3146.14,1730.58,3185.55,1730.58,3233.72Z" transform="translate(-1299.28 -1493)"/><path id="n_right" data-name="n right" class="cls-15" d="M2321.74,3160.51l-12.49,5a87.58,87.58,0,0,0-48.39,114l55.85,138.24a87.58,87.58,0,0,0,114,48.39h0a87.84,87.84,0,0,0,48.39-114l-60.9-150.73A74.1,74.1,0,0,0,2321.74,3160.51Z" transform="translate(-1299.28 -1493)"/><path id="n_left" data-name="n left" class="cls-15" d="M1845.22,3165.56l-12.49-5a74.32,74.32,0,0,0-96.47,40.95l-60.4,149.49a87.84,87.84,0,0,0,48.39,114h0a87.84,87.84,0,0,0,114-48.39l55.35-137A87.84,87.84,0,0,0,1845.22,3165.56Z" transform="translate(-1299.28 -1493)"/><rect id="outer_left-2" data-name="outer left" class="cls-14" x="1992.97" y="2695.78" width="169.09" height="400.16" rx="84.55" ry="84.55" transform="matrix(0, -1, 1, 0, -2117.62, 3480.39)"/><rect id="outer_left-3" data-name="outer left" class="cls-14" x="2054.03" y="2512.55" width="169.09" height="474.38" rx="84.55" ry="84.55" transform="translate(-2173.62 -491.65) rotate(-22)"/><g id="vertical_line" data-name="vertical line"><rect class="cls-16" x="1832.73" width="100" height="2083" rx="50" ry="50"/></g></g></svg>