<svg xmlns="http://www.w3.org/2000/svg" viewBox="0 0 1551.42 1878.6"><defs><style>.cls-1{fill:#222;}</style></defs><title>logo-black</title><g id="logo"><rect id="outer_left" data-name="outer left" class="cls-1" x="1642.97" y="1527.15" width="175.16" height="2010.29" rx="87.58" ry="87.58" transform="matrix(0.93, 0.37, -0.37, 0.93, -224.65, -2057.88)"/><rect id="outer_right" data-name="outer right" class="cls-1" x="2331.65" y="1527.12" width="175.16" height="2011.33" rx="87.58" ry="87.58" transform="translate(-2071.92 -503.31) rotate(-22)"/><path id="n_horizontal" data-name="n horizontal" class="cls-1" d="M1730.58,3233.72v87.58h693.89v-87.58c0-48.17-39.12-87.58-86.94-87.58h-520C1769.7,3146.14,1730.58,3185.55,1730.58,3233.72Z" transform="translate(-1299.28 -1594)"/><path id="n_right" data-name="n right" class="cls-1" d="M2321.74,3160.51l-12.49,5a87.58,87.58,0,0,0-48.39,114l55.85,138.24a87.58,87.58,0,0,0,114,48.39h0a87.84,87.84,0,0,0,48.39-114l-60.9-150.73A74.1,74.1,0,0,0,2321.74,3160.51Z" transform="translate(-1299.28 -1594)"/><path id="n_left" data-name="n left" class="cls-1" d="M1845.22,3165.56l-12.49-5a74.32,74.32,0,0,0-96.47,40.95l-60.4,149.49a87.84,87.84,0,0,0,48.39,114h0a87.84,87.84,0,0,0,114-48.39l55.35-137A87.84,87.84,0,0,0,1845.22,3165.56Z" transform="translate(-1299.28 -1594)"/><rect id="outer_left-2" data-name="outer left" class="cls-1" x="1992.97" y="2695.78" width="169.09" height="400.16" rx="84.55" ry="84.55" transform="translate(-2117.62 3379.39) rotate(-90)"/><rect id="outer_left-3" data-name="outer left" class="cls-1" x="2054.03" y="2512.55" width="169.09" height="474.38" rx="84.55" ry="84.55" transform="translate(-2173.62 -592.65) rotate(-22)"/></g></svg>